<svg width="111" height="32" viewBox="0 0 111 32" fill="none" xmlns="http://www.w3.org/2000/svg">
<path fill-rule="evenodd" clip-rule="evenodd" d="M64.0229 12.3452V27.7721C64.0229 29.2005 64.0803 30.7432 64.1378 31.6574H61.0344L60.9194 29.4862H60.8619C60.0574 31.0289 58.3332 32.0002 56.3217 32.0002C52.9884 32.0002 50.4022 29.2005 50.4022 24.9724C50.3447 20.3443 53.2757 17.6018 56.6091 17.6018C58.5056 17.6018 59.8849 18.4017 60.5171 19.4301H60.5746V12.3452H64.0229ZM60.5171 23.6011C60.5171 23.3154 60.5171 22.9726 60.4022 22.6869C60.1148 21.3157 58.9654 20.2301 57.3562 20.2301C55.1148 20.2301 53.8504 22.2298 53.8504 24.801C53.8504 27.315 55.1148 29.1434 57.3562 29.1434C58.793 29.1434 60.0574 28.172 60.3447 26.6865C60.4596 26.4008 60.4596 26.058 60.4596 25.658V23.6011H60.5171ZM36.2071 17.8303C36.2646 19.0302 36.322 20.3443 36.322 21.9441H36.3795V31.7145H39.8853V23.6011C39.8853 23.2011 39.8853 22.7441 40.0002 22.4584C40.4025 21.3728 41.3795 20.4015 42.7588 20.4015C44.6554 20.4015 45.4025 21.887 45.4025 23.8868V31.6002H48.9082V23.4297C48.9082 19.0302 46.3795 17.4875 43.9657 17.4875C41.6669 17.4875 40.1151 18.8016 39.5404 19.8872H39.4255L39.2531 17.8303H36.2071ZM0.114943 21.9448C0.114943 20.345 0.114943 19.0308 0 17.831H3.04598L3.16092 19.8879H3.21839C3.90805 18.8023 5.17241 17.5453 7.47126 17.5453C9.31034 17.5453 10.6897 18.5737 11.3218 20.1164H11.3793C11.8391 19.3736 12.4138 18.8023 13.1034 18.4023C13.8506 17.8881 14.7701 17.6024 15.9195 17.6024C18.2184 17.6024 20.5747 19.1451 20.5747 23.6017V31.7151H17.1839V24.0017C17.1839 21.7162 16.3793 20.345 14.7126 20.345C13.5057 20.345 12.6437 21.202 12.2414 22.1733C12.225 22.2709 12.204 22.373 12.1823 22.4785L12.1823 22.4786L12.1823 22.4786C12.1278 22.7438 12.069 23.0299 12.069 23.3161V31.6009H8.62069V23.6017C8.62069 21.6591 7.87356 20.345 6.2069 20.345C4.88506 20.345 4.02299 21.3734 3.67816 22.3447C3.56322 22.6876 3.50575 23.0875 3.50575 23.4875V31.658H0.114943V21.9448ZM33.8504 28.3441C33.8504 29.6011 33.9079 30.8009 34.0228 31.658H30.8619L30.632 30.1153H30.517C29.655 31.2009 28.2182 31.9437 26.4366 31.9437C23.6205 31.9437 22.0688 29.9439 22.0688 27.8298C22.0688 24.3445 25.1722 22.5733 30.2872 22.6304V22.4019C30.2872 21.4877 29.9423 20.0021 27.4711 20.0021C26.0918 20.0021 24.655 20.4021 23.7354 21.0306L23.0458 18.7451C24.0803 18.1166 25.8619 17.5453 28.0458 17.5453C32.4711 17.5453 33.7929 20.345 33.7929 23.3732V28.3441H33.8504ZM30.4596 24.9159C27.9883 24.8587 25.632 25.373 25.632 27.487C25.632 28.8583 26.4941 29.4868 27.6435 29.4868C29.0228 29.4868 30.0573 28.5726 30.4021 27.6013C30.4596 27.3728 30.517 27.0871 30.517 26.8585V24.9159H30.4596ZM66.4943 17.8309H70V31.6009H66.4943V17.8309ZM72.5287 22.2875V22.2871C72.5287 20.4018 72.5287 19.0877 72.4138 17.8308H75.4598L75.5747 20.4591H75.6897C76.3793 18.5165 77.9885 17.8308 79.4828 17.8308C79.6078 17.8308 79.7101 17.8233 79.8035 17.8165C79.9677 17.8044 80.1042 17.7944 80.2874 17.8308V20.9162C80 20.859 79.7126 20.8019 79.2529 20.8019C77.5862 20.8019 76.4368 21.8875 76.092 23.4302C76.0345 23.7159 75.977 24.1158 75.977 24.5158V31.6579H72.4713V22.2875H72.5287ZM81.9541 17.8309H85.4599V31.6009H81.9541V17.8309Z" fill="#2569A5"/>
<path d="M102.356 2.91801C101.724 3.20369 97.2414 5.77484 97.2414 5.77484C94.7701 6.8033 92.8736 5.66056 92.1264 4.74638C92.069 4.63211 91.954 4.57497 91.954 4.4607L91.7816 4.17501C91.4943 3.71792 91.2069 3.20369 90.8046 2.68946C90.5747 2.40378 90.3448 2.1181 90.115 1.88955C88.4483 0.175453 85.7471 -0.967278 81.2644 1.14678C79.1379 2.34664 72.1839 6.28907 72.1839 6.28907C69.5977 7.37466 67.5862 6.06052 66.954 5.0892C66.954 5.03206 66.8966 5.03206 66.8966 4.97493L66.8391 4.80352L66.3793 4.11788C66.2069 3.83219 65.977 3.54651 65.7471 3.20369C65.5173 2.91801 65.2874 2.68946 65.0575 2.40378C63.3908 0.746819 60.6897 -0.453049 56.2644 1.661C53.5632 3.20369 47.2989 6.74616 47.2989 6.74616C44.7127 8.23171 42.7012 9.37444 42.7012 9.37444L45.0575 12.2884C46.0345 13.2597 47.9311 14.8024 50.8046 13.4883C50.8046 13.4883 58.7931 8.86021 58.8506 8.86021C65.6897 5.14634 69.0805 8.6888 70.5747 11.0885C70.6322 11.1457 70.6897 11.2599 70.6897 11.3171C70.6897 11.3742 70.7471 11.3742 70.7471 11.3742L70.9196 11.6599C71.6667 12.7455 72.8161 13.4883 74.1379 13.4311C74.8851 13.4311 75.4023 13.1455 76.1494 12.7455L83.9081 8.28885C90.8621 4.51783 94.2529 8.28885 95.7471 10.6886C95.8621 10.9171 95.977 11.0885 96.1494 11.2599C96.8966 12.2313 97.8736 12.8598 99.1379 12.8598C100 12.8598 100.92 12.3455 101.034 12.2313L110.345 6.91757C110.345 6.91757 109.368 5.48915 107.414 3.26083C105.69 1.31818 103.851 2.17523 102.356 2.91801Z" fill="#FFB700"/>
</svg>
